<?xml version="1.0" encoding="UTF-8"?>
<svg width="720px" height="720px" viewBox="0 0 720 720" version="1.1" xmlns="http://www.w3.org/2000/svg" xmlns:xlink="http://www.w3.org/1999/xlink">
    <title>Logo Copy</title>
    <g id="Logo-Copy" stroke="none" stroke-width="1" fill="none" fill-rule="evenodd">
        <rect fill="#FFFFFF" x="0" y="0" width="720" height="720"></rect>
        <g id="Group" transform="translate(34.000000, 136.000000)" fill="#000000" fill-rule="nonzero">
            <g id="ATYPICAL">
                <path d="M87.8559426,86.3503555 L65.2367408,86.3503555 L59.3682829,69.2281836 L27.9179065,69.2281836 L22.0494486,86.3503555 L0,86.3503555 L31.3364257,1.64964447 L56.5195169,1.64964447 L87.8559426,86.3503555 Z M54.0695782,53.6987718 L43.6430947,23.3225598 L33.2166112,53.6987718 L54.0695782,53.6987718 Z" id="Shape"></path>
                <polygon id="Path" points="166.424908 18.0323206 139.931385 18.0323206 139.931385 86.3503555 118.052862 86.3503555 118.052862 18.0323206 91.5593384 18.0323206 91.5593384 1.64964447 166.424908 1.64964447"></polygon>
                <polygon id="Path" points="254.223875 1.64964447 222.944425 53.5850032 222.944425 86.3503555 201.065902 86.3503555 201.065902 54.6089205 169.273674 1.64964447 194.114913 1.64964447 212.460966 34.4149968 230.180291 1.64964447"></polygon>
                <path d="M335.584632,28.3852618 C335.584632,32.1775479 334.919919,35.8845076 333.590495,39.5061409 C332.261071,43.1277742 330.361894,46.1710838 327.892963,48.6360698 C324.512428,51.9732816 320.742561,54.4951519 316.583363,56.2016807 C312.424164,57.9082094 307.248906,58.7614738 301.057588,58.7614738 L287.440487,58.7614738 L287.440487,86.3503555 L265.561964,86.3503555 L265.561964,1.64964447 L301.570366,1.64964447 C306.964029,1.64964447 311.512559,2.11419953 315.215955,3.04330963 C318.919351,3.97241974 322.195431,5.3660849 325.044197,7.22430511 C328.462717,9.46175393 331.074085,12.32493 332.878304,15.8138332 C334.682522,19.3027365 335.584632,23.4932127 335.584632,28.3852618 Z M312.96543,28.8972204 C312.96543,26.5080802 312.319709,24.4507649 311.028269,22.7252747 C309.736828,20.9997845 308.236478,19.7957337 306.527219,19.1131222 C304.248206,18.2029735 302.026168,17.7004956 299.861106,17.6056884 C297.696044,17.5108813 294.809295,17.4634777 291.200858,17.4634777 L287.440487,17.4634777 L287.440487,42.833872 L293.707772,42.833872 C297.430159,42.833872 300.497331,42.6063348 302.909286,42.1512605 C305.321241,41.6961862 307.343865,40.7860375 308.977157,39.4208145 C310.382549,38.2072829 311.398608,36.7567335 312.025337,35.0691661 C312.652065,33.3815988 312.96543,31.3242836 312.96543,28.8972204 Z" id="Shape"></path>
                <polygon id="Path" points="396.947051 86.3503555 347.264572 86.3503555 347.264572 71.3329024 361.16655 71.3329024 361.16655 16.6670976 347.264572 16.6670976 347.264572 1.64964447 396.947051 1.64964447 396.947051 16.6670976 383.045073 16.6670976 383.045073 71.3329024 396.947051 71.3329024"></polygon>
                <path d="M453.124716,88 C446.819447,88 440.998468,87.0708899 435.66178,85.2126697 C430.325092,83.3544495 425.738579,80.5860806 421.902241,76.907563 C418.065902,73.2290455 415.09369,68.6403792 412.985603,63.1415643 C410.877516,57.6427494 409.823473,51.2906701 409.823473,44.0853264 C409.823473,37.37298 410.830037,31.2863607 412.843165,25.8254686 C414.856293,20.3645766 417.781026,15.6811032 421.617364,11.7750485 C425.301768,8.0206852 429.869289,5.1195863 435.319928,3.07175178 C440.770567,1.02391726 446.724488,0 453.181691,0 C456.752144,0 459.97125,0.199095023 462.839008,0.597285068 C465.706765,0.995475113 468.356118,1.51691446 470.787065,2.1616031 C473.331962,2.88213747 475.639463,3.68799828 477.709566,4.57918552 C479.779669,5.47037276 481.593384,6.295195 483.150709,7.05365223 L483.150709,27.5888817 L480.643795,27.5888817 C479.580256,26.678733 478.241336,25.5979315 476.627035,24.3464771 C475.012734,23.0950226 473.180028,21.8625296 471.128917,20.6489981 C469.039821,19.4354665 466.7798,18.4115492 464.348853,17.5772463 C461.917907,16.7429433 459.316034,16.3257919 456.543235,16.3257919 C453.466567,16.3257919 450.541834,16.8093083 447.769036,17.7763413 C444.996237,18.7433743 442.432347,20.3456152 440.077367,22.583064 C437.836338,24.7446671 436.022624,27.6078431 434.636224,31.1725921 C433.249825,34.7373411 432.556625,39.0605473 432.556625,44.1422107 C432.556625,49.4514113 433.3068,53.8883861 434.80715,57.4531351 C436.3075,61.0178841 438.197182,63.8241758 440.476195,65.8720103 C442.793191,67.9577677 445.376072,69.44624 448.224838,70.3374273 C451.073604,71.2286145 453.884386,71.6742081 456.657185,71.6742081 C459.316034,71.6742081 461.946394,71.2760181 464.548267,70.479638 C467.15014,69.6832579 469.552599,68.6024564 471.755645,67.2372334 C473.616839,66.1374704 475.34509,64.9618617 476.940399,63.7104072 C478.535708,62.4589528 479.84614,61.3781513 480.871696,60.4680026 L483.150709,60.4680026 L483.150709,80.7188106 C481.02363,81.6668821 478.991511,82.5580694 477.05435,83.3923723 C475.117189,84.2266753 473.085069,84.9472097 470.957991,85.5539754 C468.185192,86.3503555 465.583319,86.9571213 463.152372,87.3742728 C460.721425,87.7914243 457.378873,88 453.124716,88 Z" id="Path"></path>
                <path d="M577.615789,86.3503555 L554.996587,86.3503555 L549.128129,69.2281836 L517.677752,69.2281836 L511.809295,86.3503555 L489.759846,86.3503555 L521.096272,1.64964447 L546.279363,1.64964447 L577.615789,86.3503555 Z M543.829424,53.6987718 L533.402941,23.3225598 L522.976457,53.6987718 L543.829424,53.6987718 Z" id="Shape"></path>
                <polygon id="Path" points="651 86.3503555 589.808507 86.3503555 589.808507 1.64964447 611.68703 1.64964447 611.68703 69.9676794 651 69.9676794"></polygon>
            </g>
            <g id="PM" transform="translate(0.000000, 102.000000)">
                <path d="M285,108.89859 C285,124.345198 282.294548,139.444258 276.883645,154.195769 C271.472742,168.94728 263.74288,181.343183 253.69406,191.383479 C239.934906,204.976494 224.591131,215.248489 207.662734,222.199463 C190.734337,229.150437 169.670464,232.625923 144.471115,232.625923 L89.0480065,232.625923 L89.0480065,345 L0,345 L0,0 L146.558177,0 C168.510985,0 187.024003,1.89220954 202.097234,5.67662861 C217.170464,9.46104768 230.504475,15.1376763 242.099268,22.7065144 C256.013019,31.8200134 266.641579,43.4822028 273.984947,57.6930826 C281.328316,71.9039624 285,88.9724647 285,108.89859 Z M192,111.419283 C192,101.719731 189.394345,93.3673393 184.183036,86.3621076 C178.971726,79.3568759 172.917411,74.4686099 166.020089,71.6973094 C156.823661,68.0022422 147.857143,65.9622571 139.120536,65.5773543 C130.383929,65.1924514 118.735119,65 104.174107,65 L89,65 L89,168 L114.290179,168 C129.311012,168 141.687872,167.076233 151.420759,165.2287 C161.153646,163.381166 169.315476,159.686099 175.90625,154.143498 C181.577381,149.216741 185.677455,143.327728 188.206473,136.476457 C190.735491,129.625187 192,121.272795 192,111.419283 Z" id="Shape"></path>
                <polygon id="Path" points="652.151261 345 563.618594 345 563.618594 113.99597 499.652583 263.905306 438.235943 263.905306 374.269932 113.99597 374.269932 345 290.372484 345 290.372484 0 393.737849 0 471.377753 173.079248 548.785896 0 652.151261 0"></polygon>
            </g>
        </g>
    </g>
</svg>